<svg xmlns="http://www.w3.org/2000/svg" viewBox="0 0 250 203.138" >
	<path d="M78.62,203.138c94.34,0,145.94-78.16,145.94-145.94,0-2.22,0-4.43-.15-6.63A104.356,104.356,0,0,0,250,24.018a102.39,102.39,0,0,1-29.46,8.07,51.471,51.471,0,0,0,22.55-28.37,102.783,102.783,0,0,1-32.57,12.45,51.34,51.34,0,0,0-87.41,46.78A145.62,145.62,0,0,1,17.4,9.358a51.33,51.33,0,0,0,15.88,68.47A50.912,50.912,0,0,1,10,71.408v.65a51.311,51.311,0,0,0,41.15,50.28,51.208,51.208,0,0,1-23.16.88,51.35,51.35,0,0,0,47.92,35.62,102.924,102.924,0,0,1-63.7,22A104.461,104.461,0,0,1,0,180.1a145.208,145.208,0,0,0,78.62,23" />
</svg>
