<svg xmlns="http://www.w3.org/2000/svg" viewBox="0 0 483.333 259.328">
  <title>Asset 1</title>
  <g id="Layer_2" data-name="Layer 2">
    <g id="Capa_1" data-name="Capa 1">
      <g>
        <g>
          <path d="M79.116,43.377s1.913-27.653,5.74-36.222c0,0,17.16,14.3,26.685,23.357,0,0,10.026-22.41,17.639-30.512,0,0,16.7,22.4,17.159,31.449,0,0,19.551-20.966,27.664-24.294,0,0,4.742,25.251,5.719,35.266,0,0,17.617-8.58,33.382-13.344,0,0-2.392,25.261-7.634,36.223,0,0,23.338-1.9,36.234-.469,0,0-7.652,20.02-19.073,30.5,0,0,26.682,4.763,35.254,12.4,0,0-19.072,15.735-29.077,22.39a123.424,123.424,0,0,1,28.6,21.945s-12.853,8.091-33.339,11.439c0,0,14.748,21.919,17.639,31.449,0,0-21.465,1.914-36.234-1.9,0,0,6.658,21.455,7.136,36.235,0,0-25.729-8.109-33.861-13.835,0,0-.937,25.755-4.742,36.236,0,0-18.117-14.786-27.664-23.358,0,0-10,24.315-16.681,30.992,0,0-11.42-14.792-18.117-30.992,0,0-22.38,21.443-27.164,23.358,0,0-6.2-26.218-5.261-35.754,0,0-20.946,10.481-34.3,13.353a235.654,235.654,0,0,1,6.657-35.278s-27.165,3.341-35.734,0c0,0,10-19.072,18.593-30.51,0,0-24.309-6.2-33.854-11.92,0,0,13.806-11.914,27.657-21.93,0,0-20.493-16.194-28.136-22.881,0,0,17.174-8.1,34.333-11.918,0,0-15.266-20.489-18.593-30.025,0,0,19.551-1.913,36.232,0,0,0-7.155-26.227-7.155-34.8C44.817,30.035,68.632,35.754,79.116,43.377Z" fill="#00a651"/>
          <path d="M79.116,43.377S77.7,62.918,80.551,72.684c0,0-9.507-4.524-28.579-7.853,0,0,6.2,19.542,12.157,27.4a103.86,103.86,0,0,0-29.8,2.621s13.335,17.627,20.488,21.455c0,0-20.009,7.155-26.685,13.344,0,0,13.811,10.491,27.164,13.351,0,0-20.009,11.907-20.967,20.5,0,0,14.29,5.243,30.035,3.335,0,0-12.894,19.541-12.894,27.175,0,0,20.986-2.39,29.555-7.39,0,0-3.8,17.4-1.913,29.315,0,0,19.093-9.06,24.574-16.206,0,0,3.567,21.45,7.851,28.6,0,0,12.418-11.438,17.9-24.078,0,0,10.245,19.792,16.9,24.078,0,0,8.61-18.6,8.829-28.6,0,0,17.4,15.724,23.577,15.724,0,0,.977-21.919-1.415-28.595,0,0,19.073,7.634,28.14,6.195,0,0-4.782-19.548-11.219-25.974,0,0,21.224.237,29.814-3.579,0,0-15.286-19.554-21.245-21.219,0,0,24.1-7.859,25.988-12.165,0,0-17.638-14.289-25.489-14.049,0,0,15.007-13.583,19.312-20.738,0,0-15.745-4.294-28.122-3.816,0,0,9.029-16.672,10.961-26.218,0,0-16.7,2.381-27.662,6.447,0,0,2.392-21.694,1.914-29.326,0,0-19.072,7.632-25.033,16.452,0,0-4.045-25.511-8.35-27.424,0,0-13.811,14.789-17.159,22.889,0,0-10.484-17.159-17.639-23.826,0,0-8.569,21.445-7.851,29.079C103.69,59.591,90.576,44.8,79.116,43.377Z" fill="#a6ce3a"/>
          <path d="M103.69,59.591s-1.913,17.387.477,27.4A45.012,45.012,0,0,0,80.551,72.684S86.29,92.713,91.293,97.965a58.253,58.253,0,0,0-27.164-5.73s9.526,15.266,17.379,20.248c0,0-16.2-.468-26.687,3.828,0,0,15.5,12.633,22.88,13.344,0,0-20.269,8.351-22.4,13.351,0,0,21.465,5.719,29.077,3.1,0,0-16.68,9.53-20.009,20.737,0,0,20.727.244,28.1-6.195,0,0-10.961,13.1-11.44,25.98a55.9,55.9,0,0,0,22.9-13.347s-2.631,20.5-.239,26.456c0,0,15.485-13.591,16.68-21.444,0,0,3.329,20.486,9.068,25.968,0,0,8.312-14.548,8.571-25.5,0,0,9.765,17.639,17.159,20.974,0,0,2.153-18.834-.479-27.413a73.869,73.869,0,0,0,22.641,14.542s-3.327-17.4-8.829-24.791a64.439,64.439,0,0,0,25.75,5.012s-3.329-10.018-17.4-20.5c0,0,14.55.713,25.969-4.3,0,0-11.9-10.491-22.859-13.342,0,0,17.159-5,23.358-12.872a67.659,67.659,0,0,0-25.989-4.057s13.592-10.951,17.179-20.5a89.423,89.423,0,0,0-26.247,5s8.828-12.625,9.546-24.772c0,0-13.113,4.285-22.859,13.1,0,0,2.132-18.355-.26-25.978,0,0-13.592,12.386-16.442,19.292,0,0-2.869-16.911-9.067-23.827,0,0-7.374,12.876-8.81,24.065C120.37,78.4,109.151,62.439,103.69,59.591Z" fill="#fff200"/>
          <path d="M129.438,102.489s3.09-17.17,8.312-22.4a59.993,59.993,0,0,1,.718,24.065s7.413-12.4,15.982-17.877c0,0-2.132,12.635-8.35,22.162,0,0,11.939-8.341,21.226-10.722,0,0-6.676,12.635-15.268,18.116,0,0,17.161-4.534,23.6-3.349,0,0-8.33,9.785-20.488,12.178,0,0,19.293.936,24.793,5.241a91.279,91.279,0,0,1-23.837,4.043s18.1,7.384,20.727,12.64a76.7,76.7,0,0,1-24.075-3.579s14.311,12.865,15.725,19.066c0,0-13.552-3.811-21.922-12.4,0,0,7.871,16.694,7.871,23.84,0,0-11.44-10.243-15.724-18.359,0,0,2.371,18.365-.479,24.554,0,0-7.153-12.621-9.067-22.639,0,0-5.481,18.108-9.287,22.163,0,0-1.436-17.157.238-24.316,0,0-10.742,15.03-16.2,18.365,0,0,2.611-15.017,8.33-23.364,0,0-14.529,10.243-21.922,11.914,0,0,1.913-6.677,15.724-19.3,0,0-17.858,5.726-24.313,4.055,0,0,4.065-5.256,20.506-12.4,0,0-22.161-2.144-24.553-4.534,0,0,12.157-4.775,25.032-4.537,0,0-19.79-8.807-21.225-12.635,0,0,16.94-.7,24.553,4.307,0,0-16.2-16.693-16.442-20.271,0,0,17.179,6.916,22.162,12.4,0,0-7.852-16.682-7.852-22.88,0,0,10.961,7.871,15.725,18.116,0,0-1.416-18.595.955-24.793C120.609,79.36,129.438,95.105,129.438,102.489Z" fill="#fff"/>
        </g>
        <g>
          <path d="M334.392,77.228c-24.309,0-33.357,16.68-33.357,16.68V42.421H282.914l-.475,135.869h18.6V163.505c10.956,18.114,33.357,15.724,33.357,15.724,42.431,0,42.431-51,42.431-51C376.823,75.792,334.392,77.228,334.392,77.228Zm-5.281,90.563c-16.018,0-29.033-17.6-29.033-39.322s13.015-39.324,29.033-39.324c16.044,0,29.04,17.6,29.04,39.324S345.155,167.791,329.111,167.791Z" fill="#00a651"/>
          <path d="M440.922,179.986c-24.316,0-33.382-16.381-33.382-16.381v50.558H389.418l-.456-133.4H407.54V95.284c10.981-17.786,33.382-15.445,33.382-15.445,42.411,0,42.411,50.085,42.411,50.085C483.333,181.4,440.922,179.986,440.922,179.986ZM435.615,91.06c-16.018,0-29.033,17.3-29.033,38.623s13.015,38.6,29.033,38.6,29.022-17.276,29.022-38.6S451.64,91.06,435.615,91.06Z" fill="#00a651"/>
        </g>
      </g>
    </g>
  </g>
</svg>
