<svg viewBox="0 0 179 65" xmlns="http://www.w3.org/2000/svg"><defs><linearGradient x1="98.264%" y1="-10.909%" x2="67.986%" y2="16.404%" id="a"><stop stop-color="#FFFFFE" offset="0%"/><stop stop-color="#A03123" offset="100%"/></linearGradient></defs><g fill-rule="nonzero" fill="none"><path d="M166 8.7l-21.3 24.9c.4.9.8 2 1 3.1 31.9-17.4 20.3-28 20.3-28z" fill="#A03123"/><g fill="#003764"><path d="M57.4 41.5c-.4 2.1-1.9 3.3-3.9 3.3-2.2 0-3.2-1.1-2.8-3.3.4-2.3 1.8-3.4 4-3.4 2.1 0 3.1 1.1 2.7 3.4zM42.2 53.2h6.5l1.1-6.7c1 1.4 2.7 2.1 5.2 2.1 4.6 0 8.3-2.7 9.1-7 .8-4.3-1.7-7.1-6.5-7.1-2.5 0-4.7.6-6.4 2.1l.3-1.8h-6.3l-3 18.4zM66.1 34.6h7l-2.3 13.6h-7zM74.4 48.3l2-11.1h-2.6l.5-2.7h2.6l.5-3.1 7.4-1.7-.9 4.8h3.6l-.5 2.7h-3.6l-2.2 11.1zM108.5 29.1h7.2l-3.3 19.2h-7.2zM20.7 43.6c-1.5.5-3.5.7-5.1.7-4.3 0-7.1-1.4-6.4-5.2.6-3.3 4.9-5.3 8.7-5.3 1.9 0 3.9.6 5.4 1.4l.7-5c-1.7-.8-3.9-1.2-6.6-1.2C9.4 29 2 33 .9 39.2c-1.1 6.4 4.3 9.9 12.2 9.9 2.2 0 4.5-.1 6.7-.5l.9-5zM42.3 40.5c.4-1.8.7-3.6-.3-4.7-1.1-1.2-4.4-1.6-7.7-1.4-4.4.2-6.8.5-8.1.9l-1 3.6c2.1-.7 6.8-1.3 8.3-1.2 1.6.1 2.7.3 2.5 1.1 0 0 .4 1.3-4.4 1.9-.8.1-1.8.3-3 .3-3 .1-6.3 1.5-6.8 3.8-.5 2.4 1.8 4 6.1 3.8 2.4-.1 4.5-.6 6.5-1.8 0 .5.1 1.2.2 1.6h7.3l-.1-.5c-.6-.2-.7-1.2-.5-2.3l1-5.1zm-7.2 3.3c-.6 1.6-3.2 2-4.4 2-1.4 0-2-.4-1.8-1.3.2-.8.8-1.2 2.3-1.5 1.5-.3 3-.3 4.2-.8l-.3 1.6zM70.4 33.4c-2.1.1-3.8-.8-3.8-1.9-.1-1.1 1.6-2.2 3.6-2.2 2-.1 3.7.8 3.8 1.9.1 1.1-1.6 2.1-3.6 2.2zM104.7 40.5c.4-1.8.7-3.6-.3-4.7-1.1-1.2-4.4-1.6-7.8-1.4-4.4.2-6.8.5-8.1.9l-1 3.6c2.1-.7 6.8-1.3 8.3-1.2 1.6.1 2.7.3 2.5 1.1 0 0 .4 1.3-4.4 1.9-.8.1-1.8.3-3 .3-3 .1-6.3 1.5-6.8 3.8-.5 2.4 1.8 4 6.1 3.8 2.4-.1 4.5-.6 6.5-1.8 0 .5.1 1.2.2 1.6h7.3l-.1-.5c-.6-.2-.7-1.2-.5-2.3l1.1-5.1zm-7.2 2.9c-.6 1.9-3.1 2.4-4.3 2.3-1.4 0-2-.4-1.8-1.3.2-.8.8-1.2 2.3-1.5 1.5-.3 3-.3 4.2-.8l-.4 1.3zM169 36.1c-2.2.1-4.3.8-6.7 3.3-2.3 2.5-3.3 5.4-3.5 7.7v1.2c-1.3 1.4-2.1 2-2.5 2-.4 0-.8-.5-.8-.8 0-.4.6-2.1 1-3.8 0 0 1.6-6.4 1.7-6.9.1-.9 0-2.7-1.4-2.6 0 0-2.3-.9-9.6 6.8.6-2.9 1.2-5.4 1.2-5.4.6-1.7-.7-1.1-.7-1.1-1.4.5-3.6 1.1-4.5 1.4 0-4.9-3.3-9.8-9.9-9.8-4.4 0-8.2 2-10.9 5.7-1.7 2.4-2.9 5-3.1 7.7-.6 6.5 2.9 11.1 9.8 11 4.1-.1 7.2-1.3 10.1-4.4 2.3-2.4 3.7-5.7 4-9.1.9-.5 1.7-.3 1.7-.3.4 0 .7.3.6.8 0 .3-2.7 12.2-2.7 12.6 0 0 1.5-.1 2.5-.1.3 0 .8-3 1.4-6.4 0-.2.1-.5.1-.7 3-3.5 6.7-6.5 7.8-6.5.5 0 1.1.4.8 1.4-.1.2-2.8 10.1-2.9 10.7-.1 1.5.9 1.9 1.6 1.9 1.3 0 2.6-.7 4.9-3.3.7 2 2.7 3.3 4.7 3.3 2.5 0 4.9-1.2 7.3-4.4l-.4-.7c-2.1 2.3-3.1 3.4-5.7 3.4-2.3 0-3.6-1.5-3.4-3.6.1-.7.3-2 .3-2 6.4-.4 10.2-1.5 10.9-5.9.3-1.5-1.1-3.2-3.7-3.1zm-29.5 3.8c-.3 3.8-1.3 6-3.4 8.4-1.9 2.2-3.8 3.1-6.3 3.1-4.9 0-7.4-3.3-6.9-9.6.4-4.1 1.8-7.8 4.4-10.3 1.7-1.6 3.2-2.2 5.6-2.2 4.7-.1 7.1 4.6 6.6 10.6zm30.8-.6c-1.1 5.1-8.1 5.1-8.1 5.1.8-3 3.1-7 6.4-7.5 1.8-.2 1.7 2.4 1.7 2.4z"/></g><path d="M91.2 64.4s13.2-5.5 28.6-13.4c-.7-.8-1.3-1.8-1.8-3.1-13.2 9.4-26.8 16.5-26.8 16.5zM166 8.7c-9.9-20.5-118.1 6.1-118.1 6.1s92.4-14.9 94.6 3.4c.4 2.9-.7 5.9-2.6 9.1 1.7 1.4 4.3 4.1 5.6 8.8 14.1-9.4 24.3-19.5 20.5-27.4z" fill="url(#a)"/><g fill="#003764"><path d="M174 37.1v-2.6h-1v-.3h2.3v.3h-1v2.6zM175.7 37.1v-2.9h.6l.7 2.1c.1.2.1.3.1.4 0-.1.1-.3.2-.5l.7-2h.5v2.9h-.4v-2.4l-.8 2.4h-.3l-.8-2.5v2.5h-.5z"/></g></g></svg>