<svg xmlns="http://www.w3.org/2000/svg" viewBox="0 0 799.999 261.954">
  <g fill="#e61a27">
    <path d="M307.208,228.51c-29.768-19.176-70.167-22.541-135.319-4.465-69.457,16.322-92.615,26.785-123.028,5.781C37.177,219.508,32.988,202.9,36.116,178.965c7.255-39.01,26.861-76.551,61.687-118.193,19.438-21.662,37.47-40.252,61.279-47.717,18.248-4.683,16.542,9.658,14.334,11.709-2.33,0-6.244.367-9.269,2.341-2.455,1.9-9.194,8.052-9.556,16.322-.522,12.66,12.579,10.025,18.23,3.074,6.091-7.833,15.093-22.833,8.012-36.813A20.8,20.8,0,0,0,166.37.1c-21.8-1.246-42.106,9.147-60.846,20.637-40.982,28.469-73.765,67.917-92.315,111.1C2.515,157.889-7.157,195.209,7.34,225.584c11.216,21.076,34.5,32.271,62.278,29.93,19.483-2.047,43.042-8.344,58.887-12.146s96.954-31.689,123.6,16.836a35.992,35.992,0,0,1,31.009-17.57c18.208-1.68,44.476,5.271,63.6,19.32C340.349,252.37,322.281,238.245,307.208,228.51Z"/>
    <path d="M180.159,65.675c-15.17-9.953-45.66,9.075-70.081,41.714-22.332,29.277-31.975,63.3-21.48,79.039,15.61,18.515,44.591-8.416,56.915-22.831l1.59-1.685c8.381-9,14.855-19.834,21.123-30.228,0,0,5.76-9.514,6.035-9.954,3.56-.656,7.848-1.681,12.68-3.072-.069.218-18.487,31.176-16.608,46.542.585,4.688.139,21.813,16.858,27.008,22.284,3.735,40.078-13.539,55.776-28.908,0,0,2.675-2.559,4.188-4.02-.383,1.532-.882,3.577-.882,3.577-6.524,22.688,2.27,27.449,7.771,29.205,16.625,4.834,36.486-19.319,36.551-19.319-.516,7.608-2.021,13.9,6,18.952,7.569,2.71,15.23-1.422,21.054-5.3,20.975-14.782,37.873-37.92,51.521-57.919h-8.706c-.1,0-21.482,30.988-35.365,37.723-.022,0-2.549,1.3-4,.271-1.8-1.537-1.092-4.734.021-7,.07-.147,53.6-93,53.6-93H349.443s-2.761,4.467-2.986,4.76c-.17-.146-.575-.914-.855-1.282-15.66-21.662-51.123,11.658-77.822,50.3-10.279,14.858-23.366,31.587-36.936,43.662,0,0-20.1,18.428-28.693,5.188-3.14-5.563-2.174-13.7-.4-19.037,10-28.47,27.234-54.307,46.845-69.9,5.535-4.315,11.553-5.563,14.538-3.733,2.846,1.686,3.305,5.854,1.505,8.709a14.092,14.092,0,0,0-11.2,4.316c-5.86,6.148-7.9,12.077-6.033,17.64,9.051,12.88,27.1-12.589,26.229-28.1-.312-5.563-3.279-10.831-7.709-13.395-6.6-3.95-16.671-2.927-23.188.222C234.009,69.115,220.2,80.6,212.139,89.534c-10.148,11.2-27.553,23.639-33,22.246,1.779-4.758,16.48-34.836,1.015-46.1Zm121.861,44.5c4.917-6.805,19.228-25.029,22.717-28.1,11.734-10.323,16.424-5.781,16.83-2.563-10.951,19.613-23.876,42.082-36.028,62.282.025-.072-3.8,5.781-3.8,5.781-5.367,8.194-10.771,15.221-19.586,20.123a5.68,5.68,0,0,1-4.708-.513,4.988,4.988,0,0,1-2.128-4.831c.529-6.292,6.935-25.536,26.706-52.177Zm-137.5,11.782s-.221.661-.329.877c-.028,0-11.021,17.928-11.021,17.928-6.634,8.857-14.917,19.984-25.271,25.324-3.069,1.024-7.312,1.685-9.474-1.021-4.583-5.49-2.221-13.1-.3-19.248l.68-2.2c5.5-14.928,14.231-28.1,22.729-40.326a1.116,1.116,0,0,1,.43-.145.59.59,0,0,1,.069.22c5.332,10.244,15.33,15,22.807,17.2.045,0,.094.073.094.22a3.6,3.6,0,0,1-.412,1.169Zm10.414-21.148c-.049.146-4.9,11.27-4.9,11.27-.7.585-1.809.293-3.079,0l-2.176-.368c-6.833-2.121-11.987-6.659-13.576-12.074-2.191-10.539,6.812-18.809,10.778-21.808,3.806-2.637,9.723-4.027,13.159-1.318,2.119,2.489,2.922,5.708,2.922,9.223C178.062,90.485,176.594,95.827,174.929,100.805Zm319.54,33.955a14.879,14.879,0,0,0-14.389-8.27c-20.023,1.831-39.608,18.3-49.892,41.934-5.4,12.15-8.341,22.175-10.272,38.129,6.227-7.17,18.927-18.952,33.339-25.393a69.371,69.371,0,0,1,11.961-28.908c3.784-5.637,11.356-14.711,19.859-12.3,7.43,2.489,4.818,23.055-5.056,42.957a138.017,138.017,0,0,1-29.8,39.377c-10,8.489-24.8,18.735-37.744,10.832-8.154-4.828-12.313-14.931-11.435-27.957,3.9-36.957,20.72-68.427,44.8-104.287,24.824-33.3,52.188-67.476,89.051-85.7,7.519-3.805,14.482-4.683,20.5-2.341,0,0-34.6,19.028-51.1,54.231-4.2,8.93-10.032,21-4.155,31.688,3.071,5.561,8.523,6,12.914,5.708C533.268,99.776,546.331,80.9,557,63.625c6.188-13.1,11.688-26.127,11.688-40.618,0-1.756-.091-4.1-.239-5.855,9.659-5.121,29.468,3.952,29.468,3.952,15.479,5.125,48.438,30.375,59.556,35.2,5.423-6.293,14.335-15.806,19.354-20.564l-7.265-4.465c-11.63-7.1-23.923-13.833-36.022-20.492-27.479-15-49.847-9.733-61.23-5.634-4.474,1.609-8.562,3-8.562,3C555.3-1.069,541.448-.193,531.239,2.3c-36.714,10.538-70.8,36.225-107.346,80.8-26.868,34.91-43.534,65.063-52.417,94.848-6.847,20.052-8.928,49.545,7.784,67.037,14.209,14.853,33.05,11.635,46.354,6.295,28.827-14.2,54.736-44.791,67.646-79.994,3.116-10.464,6.573-25.247,1.209-36.519ZM560.756,24.472c-3.816,43.765-37.835,69.455-46.253,71.5C509.4,97,500.7,94.729,508.469,76.362c11.442-24.739,30.979-45.741,51.939-56.5a11.2,11.2,0,0,1,.348,4.61Zm201.8,5.56c-18.3,10.394-37.269,17.125-60.231,14.784-6.363,7.174-12.56,14.565-18.271,22.175,32.229,8.2,66.4-10.026,85.452-27.369A134.5,134.5,0,0,0,800,.1a160.165,160.165,0,0,1-37.445,29.929ZM416.728,66.477h-24l-13.54,22h24Z"/>
    <path d="M702.227,230.547c-2.581,1.756-6.207.406-4.852-3.618,3.378-10.246,16.8-31.126,16.8-31.126l37.4-66.326H725.96c-1.218,2-3.821,6.592-3.821,6.592-1.185-1.974-4.729-6.363-6.188-7.312-6.258-3.955-15.439-2.085-21.773,1.5-27.539,16.1-47.632,47.918-63.479,72.729,0,0-16.681,27.58-25.94,29.631-7.229.586-6.483-9.152-6.17-11.421,2.795-16.4,9.286-31.983,15.825-46.108a354.137,354.137,0,0,0,42.276-34.542c29.938-28.618,55.177-61.039,58.866-68.284a58.373,58.373,0,0,1-8.708.951c-23.032,32.128-70.164,78.822-84.453,85.773,6.33-15.226,47.228-87.9,82.03-122.658l5.477-5.271c8.469-8.27,17.243-16.759,24.081-18.15.722-.073,1.652,0,2.455,1.686.305,6.439-2.092,11.2-4.842,16.612l-3.854,7.905a89.394,89.394,0,0,0,9.045-2.2c4.159-7.827,8.767-16.612,7.068-27.075a7.769,7.769,0,0,0-6.189-6.514c-10.382-1.976-21.7,5.706-30.8,11.929l-.367.218c-46.8,36.666-86.321,89.506-120.873,161.667-2.5,1.9-12.179,4.171-13.823,3.072,3.412-7.024,7.708-16.467,9.857-26.713a71.039,71.039,0,0,0,.718-8.854c0-6.3-1.512-12.225-7.154-16.321-6.616-3.294-14.793-1.756-20.307.73-24.7,10.246-43.156,35.57-56.477,56.425-7.164,13.25-14.307,27.441-16.285,43.691-1.393,12.732,1.443,20.93,8.683,25.029,7.444,3.8,16.814-.15,20.5-2.051,25.021-13.174,42.5-39.592,56.284-63.744.548-.072,8.072-.29,13.764-1.756a.349.349,0,0,1,.233.076c-.326,1.094-3.267,9.879-3.267,9.879-8.734,25.612-12.773,43.032-4.523,53.35,11.789,14.564,31.307-.51,47.184-20.42-3.408,23.857,8.956,27.592,18.382,25.764,10.827-2.926,22.892-14.492,28.491-20.418-1.8,6.951-1.31,19.4,8.54,20.637,6.75,1.248,11.8-2.424,17.648-5.572,20.969-11.418,46.07-49.465,52.587-60.465H738.11c-9.265,14-21.054,32.359-35.883,41.072ZM514.009,228a11.533,11.533,0,0,1-1.815-6.473c-.255-14.351,15.185-40.049,26.082-54.049h.023c4.566,10,14.908,16.428,21.151,19.137C551.7,203.887,525.1,240.879,514.009,228Zm49.818-49.107c-.738.516-13.779-3.878-16.3-15.953-2.138-10.4,5.021-18.519,11.947-22.613a11.976,11.976,0,0,1,10.736-1.98c3.049,2.053,3.875,5.715,3.875,9.66a58.66,58.66,0,0,1-.6,7.174l-.062.514a97.478,97.478,0,0,1-9.592,23.2Zm104.6,44.5c-.011,0-2.475,2.195-2.475,2.195-3.518,3.146-7.138,6.512-11.508,4.828a4.38,4.38,0,0,1-2.26-3.3c-.2-9,3.854-17.343,7.786-25.466l1.008-2.123c11.308-18.881,24.452-41.129,43.756-56.569,3.253-2.347,6.783-4.319,10.509-2.781a5.461,5.461,0,0,1,1.855,3.584,6.061,6.061,0,0,1-.617,1.976c-5.392,8.713-10.526,17.859-15.519,26.641C691.2,189.724,681.078,207.651,668.424,223.389Z"/>
  </g>
</svg>
