<svg xmlns="http://www.w3.org/2000/svg" viewBox="0 0 45.543 6.441">
  <title>Asset 1</title>
  <g id="Layer_2" data-name="Layer 2">
    <g id="Layer_1-2" data-name="Layer 1">
      <g>
        <path d="M8.009,0,6.554,1.977h7.93c.4,0,.4.151.2.418s-.532.737-.735,1.012c-.1.139-.289.392.327.392h3.243l.961-1.306C19.076,1.684,18.532,0,16.4,0Z" fill="#d80613"/>
        <path d="M5.965,6.441,8.888,2.469h3.627c.4,0,.4.152.2.418L11.975,3.9c-.1.139-.289.392.327.392H17.16a5.043,5.043,0,0,1-4.067,2.154ZM22.7,4.286,21.118,6.441H16.937l1.585-2.155Zm6.4-.488H18.882l2.8-3.8h4.179l-1.6,2.178H26.12L27.724,0H31.9Zm-.359.488L27.163,6.441H22.984l1.585-2.155ZM0,5.136H6.158l-.336.457H0Zm0-.85H6.784l-.337.457H0Zm0,1.7H5.533L5.2,6.441H0Zm45.543-.393H39.407l.337-.457h5.8Zm0,.848H38.784l.334-.455h6.425ZM40.369,4.286h5.174v.458h-5.51ZM37.691,0,34.9,3.8H30.466l2.8-3.8ZM30.108,4.286s-.3.418-.454.618c-.524.71-.061,1.536,1.652,1.536h6.712L39.6,4.286Z" fill="#d80613"/>
      </g>
    </g>
  </g>
</svg>
