<svg data-name="Layer 1" xmlns="http://www.w3.org/2000/svg" viewBox="0 0 164.407 84.955"><path d="M8.4 73.222c-4.834 0-8.4-3.383-8.4-8.008a8.175 8.175 0 0 1 8.469-8.194 13.344 13.344 0 0 1 5.614 1.4v2.692a12.067 12.067 0 0 0-5.66-1.725 5.678 5.678 0 0 0-5.8 5.752c0 3.268 2.346 5.708 6.1 5.708a7.413 7.413 0 0 0 3.061-.622v-3.607H8.123l.76-2.417h5.523v7.71A13.892 13.892 0 0 1 8.4 73.222M28.629 72.992l-3.614-5.338c-.806-1.175-1.105-1.381-1.473-1.381H22.23v6.719h-2.623V57.205h3.982c3.268 0 5.292 1.611 5.292 4.487a3.82 3.82 0 0 1-2.531 3.821c.6.093 5.454 7.479 5.477 7.479zM23.5 59.529h-1.27v4.419h1.27c2.141 0 2.763-1.173 2.739-2.323-.023-1.313-.805-2.1-2.739-2.1M35.094 72.992V57.205H44.3l-.852 2.417h-5.73v4.234h5.776v2.417h-5.776v4.304h6.604v2.415h-9.228zM49.41 72.992V57.205h9.205l-.852 2.417h-5.731v4.234h5.777v2.417h-5.777v4.304h6.606v2.415H49.41zM76.036 72.992l-9.804-11.299v11.299h-2.509V57.205h2.003l10.08 11.645V57.205h2.532v15.787h-2.302zM84.137 72.992V57.205h9.205l-.852 2.417h-5.73v4.234h5.775v2.417H86.76v4.304h6.605v2.415h-9.228zM116.471 72.992l-8.032-7.801v7.801h-2.624V57.205h2.624v7.227l6.626-7.227h3.293l-6.881 7.48 8.446 8.307h-3.452zM122.959 57.205h2.624v15.787h-2.624zM143.695 72.992l-9.803-11.299v11.299h-2.51V57.205h2.003l10.08 11.645V57.205h2.531v15.787h-2.301zM158.4 73.222c-4.834 0-8.4-3.383-8.4-8.008a8.177 8.177 0 0 1 8.47-8.194 13.352 13.352 0 0 1 5.616 1.4v2.692a12.078 12.078 0 0 0-5.662-1.725 5.677 5.677 0 0 0-5.8 5.752c0 3.268 2.347 5.708 6.1 5.708a7.419 7.419 0 0 0 3.062-.622v-3.607h-3.661l.758-2.417h5.525v7.71a13.892 13.892 0 0 1-6.006 1.311" fill="#014a2e"/><path d="M39.374 84.833h-2.129v-5.921h1.86c1.284 0 1.97.637 1.97 1.566a1.135 1.135 0 0 1-.807 1.236 1.364 1.364 0 0 1 1.148 1.419c0 1.113-.9 1.7-2.042 1.7m-.245-4.953h-.807v1.466h.795c.514 0 .856-.268.856-.733s-.33-.733-.844-.733m.1 2.348h-.9v1.64h.9c.882 0 1.077-.4 1.077-.845s-.354-.8-1.077-.8M45.967 84.955a2.285 2.285 0 0 1-2.531-2.3v-3.743h1.076v3.341a1.567 1.567 0 0 0 .318 1.211 1.5 1.5 0 0 0 1.149.5 1.66 1.66 0 0 0 1.26-.478 1.858 1.858 0 0 0 .342-1.283v-3.291h1.078v3.659c0 1.443-.882 2.384-2.692 2.384M54.37 84.834l-1.113-1.811c-.281-.452-.428-.514-.563-.514h-.759v2.325h-1.076v-5.909h1.9c1.225 0 1.982.612 1.982 1.688a1.61 1.61 0 0 1-.978 1.554 25.075 25.075 0 0 1 1.846 2.667zM52.6 79.88h-.661v1.663h.661c.807 0 1.028-.4 1.028-.844s-.27-.819-1.028-.819M59.484 82.178v2.655h-1.078v-2.605l-2.164-3.316h1.247l1.456 2.276 1.481-2.276h1.198l-2.14 3.266zM67.972 84.943a3.287 3.287 0 0 1-1.774-.452v-1.137a2.945 2.945 0 0 0 1.737.587c.6 0 .88-.269.88-.6 0-.525-.488-.745-.757-.892-1.309-.722-1.933-1.077-1.933-1.982a1.776 1.776 0 0 1 1.982-1.676 3.529 3.529 0 0 1 1.554.33v1.113a2.9 2.9 0 0 0-1.579-.452c-.758 0-.855.429-.855.575 0 .428.316.574 1.48 1.2a1.869 1.869 0 0 1 1.21 1.7 1.785 1.785 0 0 1-1.945 1.687M75.715 79.88h-1.737v4.954H72.9V79.88h-1.957v-.967h5.126l-.354.967zM84.289 79.88h-2.434v1.43h2.373v.967h-2.373v1.591h2.605v.966h-3.681v-5.921h3.866l-.356.967zM88.682 84.834h-2.229v-5.909h2.229a2.958 2.958 0 1 1 0 5.909m-.075-4.954h-1.076v3.988h1.076a1.995 1.995 0 1 0 0-3.988M98.503 84.834v-4.012l-1.724 2.457h-.49l-1.726-2.457v4.012h-1.076v-5.909h.943l2.103 2.997 2.105-2.997h.941v5.909h-1.076zM104.314 84.955a2.286 2.286 0 0 1-2.532-2.3v-3.743h1.075v3.341a1.575 1.575 0 0 0 .318 1.211 1.508 1.508 0 0 0 1.151.5 1.659 1.659 0 0 0 1.259-.478 1.863 1.863 0 0 0 .343-1.283v-3.291H107v3.659c0 1.443-.882 2.384-2.691 2.384M113.622 84.834l-3.34-4.184v4.184h-1.077v-5.921h1.039l3.366 4.233v-4.233h1.076v5.921h-1.064zM119.188 84.834h-2.228v-5.909h2.228a2.958 2.958 0 1 1 0 5.909m-.074-4.954h-1.076v3.988h1.076a1.995 1.995 0 1 0 0-3.988M125.216 84.943a3.281 3.281 0 0 1-1.773-.452v-1.137a2.948 2.948 0 0 0 1.738.587c.6 0 .879-.269.879-.6 0-.525-.488-.745-.758-.892-1.308-.722-1.932-1.077-1.932-1.982a1.775 1.775 0 0 1 1.982-1.676 3.53 3.53 0 0 1 1.553.33v1.113a2.894 2.894 0 0 0-1.578-.452c-.759 0-.855.429-.855.575 0 .428.317.574 1.479 1.2a1.87 1.87 0 0 1 1.211 1.7 1.785 1.785 0 0 1-1.946 1.687M57.978 28.179H56.82a15.586 15.586 0 0 1 2.169-5.384h-3.031l.14-.981h4.361v.463a16.85 16.85 0 0 0-2.481 5.9M61.254 4.152c2.072 1.386 3.714-.2 4.872 1.685-2.395-.776-3.7.526-4.872-1.685M65.129 9.6c2.071 1.39 3.714-.2 4.871 1.688-2.394-.772-3.7.527-4.871-1.684" fill="#ab7d21"/><path d="M62.229 5.513C64.3 6.9 65.944 5.311 67.1 7.2c-2.394-.772-3.7.528-4.871-1.684" fill="#ab7d21"/><path d="M63.206 6.875c2.072 1.387 3.714-.2 4.87 1.685-2.4-.774-3.7.527-4.87-1.685" fill="#ab7d21"/><path d="M64.18 8.236c2.074 1.388 3.714-.2 4.873 1.686-2.4-.774-3.7.526-4.873-1.686M70.905 10.572c.051-2.3 1.453-3.179.331-4.727l-3.9-5.436A4.07 4.07 0 0 0 67 0c.6 2.246-1.126 3.3-.225 4.815l-1.967-2.74a.336.336 0 0 0-.47-.075.372.372 0 0 0-.1.466l13.825 19.207a1.3 1.3 0 0 0 .673-.189s-4.083-5.7-7.831-10.912M104.022 4.152c-2.075 1.386-3.715-.2-4.874 1.685 2.4-.776 3.7.526 4.874-1.685M100.146 9.6c-2.073 1.386-3.714-.2-4.871 1.684 2.394-.772 3.7.527 4.871-1.684" fill="#ab7d21"/><path d="M103.045 5.513c-2.074 1.386-3.714-.2-4.871 1.684 2.394-.772 3.7.528 4.871-1.684" fill="#ab7d21"/><path d="M102.069 6.875C100 8.262 98.353 6.672 97.2 8.56c2.4-.774 3.7.527 4.871-1.685" fill="#ab7d21"/><path d="M101.093 8.236c-2.073 1.388-3.713-.2-4.87 1.686 2.393-.774 3.7.526 4.87-1.686M94.367 10.572c-.049-2.3-1.451-3.179-.329-4.727l3.9-5.436A4.74 4.74 0 0 1 98.276 0c-.594 2.246 1.124 3.3.225 4.815l1.968-2.74a.333.333 0 0 1 .465-.075.37.37 0 0 1 .105.466L87.211 21.673a1.311 1.311 0 0 1-.675-.189s4.086-5.7 7.831-10.912M83.67 25.941a1.029 1.029 0 1 1-1.03-1.029 1.03 1.03 0 0 1 1.03 1.029M72.476 26.5a.68.68 0 1 1-.678-.68.678.678 0 0 1 .678.68M94.154 26.5a.68.68 0 1 1-.68-.68.681.681 0 0 1 .68.68" fill="#ab7d21"/><path d="M82.637 23.728c-7.467 0-13.993.876-15.252 2a69.23 69.23 0 0 1 1.967 3.806c.549-.8 6.771-1.4 13.287-1.4 5.878 0 12.624.586 13.291 1.358.58-1.224 1.333-2.574 2-3.768-1.261-1.129-7.821-2-15.291-2M71.8 27.72a1.217 1.217 0 1 1 1.215-1.22 1.219 1.219 0 0 1-1.215 1.22m10.843-.1a1.677 1.677 0 1 1 1.678-1.677 1.677 1.677 0 0 1-1.678 1.677m10.834.1a1.217 1.217 0 1 1 1.215-1.22 1.218 1.218 0 0 1-1.217 1.219" fill="#ab7d21"/><path d="M98.362 25.058c2.283-3.994 4.588-7.291 4.588-7.291-2.461-.406-2.995 2.424-3.664 2.4-.275-.012-.314-.469-.472-.956a1.668 1.668 0 0 0-2.022-1.2c-2.092.444-.875 2.505-.883 2.492-.045-.451 1.238-1.043 1.8-.152.83 1.324-.24 3.274-3.473 2.639-2.392-.468-2.218-1.627-2.276-2.487V20.5a1.273 1.273 0 1 0-1.008-.165v.018c-.482 2.153-6.459 3.267-6.358-1.57a1.953 1.953 0 0 1 3.343-1.268 1.985 1.985 0 0 0-1.652-2.964c-1.41-.214-1.767.829-2.267.318-.261-.265.482-1.378.422-1.822a5.376 5.376 0 0 0-1.8-2.623 5.39 5.39 0 0 0-1.77 2.623c-.061.444.7 1.58.422 1.822-.539.469-.859-.532-2.267-.318a1.986 1.986 0 0 0-1.654 2.964 1.953 1.953 0 0 1 3.344 1.268c.1 4.837-5.876 3.723-6.357 1.57l-.006-.018a1.279 1.279 0 1 0-1.007.165c-.058.861.116 2.02-2.276 2.488-3.233.635-4.306-1.315-3.475-2.639.559-.891 1.843-.3 1.8.152-.008.013 1.207-2.048-.886-2.492a1.668 1.668 0 0 0-2.021 1.2c-.157.487-.2.944-.472.956-.667.027-1.2-2.8-3.664-2.4 0 0 2.3 3.3 4.591 7.291 1.241-1.141 8.294-2.028 15.7-2.028s14.481.887 15.724 2.028M70.026 30.049c0 .416 3.7.934 8.815 1.117l1.678-2.34c-5.954.129-10.493.764-10.493 1.223M95.277 30.049c0-.461-4.543-1.1-10.512-1.224l1.679 2.341c5.118-.183 8.833-.7 8.833-1.117M82.643 29.135l-.012.013-1.486 2.073c.492.007.988.012 1.5.012s1.005-.005 1.5-.012l-1.484-2.073zM72.745 41.873l9.386-13.085-.836.015-7.73 10.78-2.39-.143-2.364 7.926 3.922-5.482c0-.005.009-.008.012-.011M70.001 46.818l5.909-3.655-1.203-2.937-4.706 6.592zM92.556 41.884l3.921 5.482-2.363-7.926-2.39.143L83.992 28.8l-.834-.015 9.386 13.085.012.011M89.377 43.163l5.909 3.655-4.704-6.592-1.205 2.937zM104.737 28.471l-.657-.768a3.765 3.765 0 0 0 2.277-2.192 2.231 2.231 0 0 1-1.214.3 1.885 1.885 0 0 1-1.969-1.935 2.172 2.172 0 0 1 2.138-2.136 2.309 2.309 0 0 1 2.359 2.506 4.6 4.6 0 0 1-2.934 4.22m.657-5.784a1.084 1.084 0 0 0-1.148 1.1.99.99 0 0 0 1.13 1.019 1.63 1.63 0 0 0 1.147-.4 2.2 2.2 0 0 0 .056-.488 1.17 1.17 0 0 0-1.185-1.233M111.39 28.471l-.656-.768a3.766 3.766 0 0 0 2.276-2.192 2.23 2.23 0 0 1-1.213.3 1.885 1.885 0 0 1-1.97-1.935 2.173 2.173 0 0 1 2.137-2.136 2.31 2.31 0 0 1 2.361 2.506 4.61 4.61 0 0 1-2.935 4.22m.658-5.784a1.085 1.085 0 0 0-1.148 1.1.99.99 0 0 0 1.13 1.019 1.62 1.62 0 0 0 1.145-.4 2.067 2.067 0 0 0 .059-.488 1.171 1.171 0 0 0-1.186-1.233M51.878 27.073v-4.218l-1.517.628-.278-.842 2.017-.896h.852v5.328h-1.074z" fill="#ab7d21"/><path fill="none" d="M0 0h164.407v84.955H0z"/></svg>