<svg xmlns="http://www.w3.org/2000/svg" xmlns:xlink="http://www.w3.org/1999/xlink" viewBox="0 0 255.548 89.683">
      <polygon points="210.706 0 203.513 7.192 206.662 10.341 210.706 6.297 249.249 44.842 210.706 83.385 202.619 75.298 233.075 44.842 199.469 11.236 185.084 25.621 204.304 44.842 185.084 64.061 192.277 71.254 195.426 68.105 191.382 64.061 210.602 44.842 191.382 25.621 199.469 17.534 226.777 44.842 196.32 75.298 210.706 89.683 255.548 44.842 210.706 0" fill="#e84e0f"/>
      <g clip-path="url(#clip-path)">
        <path d="M28.561,49.713c0-12.045,3.78-16.531,14.234-16.531,10.471,0,14.234,4.667,14.234,16.531,0,11.846-3.763,16.549-14.234,16.549-10.454,0-14.234-4.485-14.234-16.549m22.915,0c0-9.206-1.99-12.009-8.681-12.009-6.584,0-8.646,2.405-8.646,12.009S36.211,61.74,42.8,61.74c6.655,0,8.681-2.8,8.681-12.027" fill="#444749"/>
        <path d="M67.532,33.617c.543,4.82,2.923,15.9,5.509,26.568l7.18-20.437c.849-2.4,1.936-3.581,3.835-3.581,1.935,0,3.092,1.176,3.906,3.581l6.909,20.383c2.637-10.65,5.068-21.695,5.636-26.514h5.462c-.69,4.894-3.709,17.255-6.83,28.866-.687,2.568-2.079,3.78-4.1,3.78-2.08,0-3.328-1.249-4.214-3.78L83.965,42.932,76.93,62.465c-.905,2.531-2.116,3.8-4.2,3.8s-3.491-1.23-4.178-3.816c-3.07-11.6-6.033-23.937-6.7-28.83Z" fill="#444749"/>
        <path d="M110.792,49.714c0-11.684,3.563-16.531,14.2-16.531,11.232,0,13.963,5.9,13.963,15.065a21.565,21.565,0,0,1-.181,2.75c-3.689.633-11.25,1.356-15.735,1.555l-6.728.289c.47,6.421,3.038,8.9,9.694,8.9a34.67,34.67,0,0,0,11.482-1.69l.473,4.135c-3.185,1.343-8.062,2.077-13.691,2.077-10.671,0-13.475-7-13.475-16.549m12.95-1.176c2.623-.126,6.979-.47,9.6-.814.049-.535.056-1.356.056-1.917,0-5.209-2.152-8.3-8.41-8.3-7.47,0-8.808,4.214-8.808,11.377Z" fill="#444749"/>
        <path d="M151.7,22.416h-5.534V57.491c0,4.467,1.139,7.361,3.255,9.766l4.757-2.351a11.676,11.676,0,0,1-2.478-7.723Z" fill="#444749"/>
        <path d="M166.894,22.416H161.36V57.491c0,4.467,1.139,7.361,3.255,9.766l4.757-2.351a11.676,11.676,0,0,1-2.478-7.723Z" fill="#444749"/>
        <path d="M12.275,65.916a59.026,59.026,0,0,0,12.3-1.17l-.519-4.53a72.631,72.631,0,0,1-10.693.9c-6.3-.087-7.375-1.494-7.375-7.318L5.915,23.628H0L.072,56.333c0,8.312,5.538,9.441,11.966,9.583Z" fill="#444749"/>
      </g>
</svg>
