<svg xmlns="http://www.w3.org/2000/svg" viewBox="0 0 2279.41 620.629">
  <title>Asset 1</title>
  <g id="Layer_2" data-name="Layer 2">
    <g id="Layer_1-2" data-name="Layer 1">
      <g id="Page-1">
        <g id="tata">
          <path id="Shape" d="M1395.313,127.9H1094.765v98.012h100.451V435.6H1293.2v-209.7h102.111Zm293.675,306.9-94.719-306.9H1475l-94.7,306.9h98l56.34-218.216L1591,434.8ZM1989.03,127.9H1688.5v98.012h100.451V435.6h97.973v-209.7H1989.03Zm290.38,306.9-94.744-306.9H2065.435l-94.744,306.9h98.038l56.341-218.216L2181.4,434.8ZM364.035,456.99c21.349-90.685,37.185-179.2,37.185-179.2s7.963-29.195-7.964-49.1-65.03-13.268-65.03-13.268-76.275.908-154.016,10.272c-69.233,8.352-139.879,22.087-165.922,27.366A205.926,205.926,0,0,0,0,310.328C0,446.964,136.546,562.888,326.112,604.3c9.948-36.159,24.9-92.072,37.923-147.31Z" fill="#2d509f"/>
          <path id="Path" d="M504.939,399.91c-.908-109.893,2.166-212.38,2.166-212.38s-3.528-15.434,6.316-22.983c10.078-7.717,33.5-7.535,33.5-7.535s90.866,2.555,192.692,15.616c74.343,9.558,154.729,24.889,191.031,32.139C863.9,85.341,687.151,0,479.57,0c-208.4,0-385.656,86.028-451.8,206.154,31.828-6.407,118.349-23.28,198.023-33.513,101.825-13.061,192.665-15.616,192.665-15.616s23.45-.182,33.514,7.535c9.844,7.549,6.317,22.983,6.317,22.983s3.086,102.487,2.166,212.38c-.727,84.225-3.321,172.562-4.9,220.3q11.925.39,24.007.4c10.168,0,20.246-.272,30.259-.687C508.246,572.109,505.665,483.967,504.939,399.91Z" fill="#2d509f"/>
          <path d="M791.208,225.674C713.467,216.31,637.179,215.4,637.179,215.4s-49.091-6.628-65.044,13.268c-15.914,19.909-7.937,49.1-7.937,49.1s15.823,88.519,37.171,179.2c12.853,54.589,27.613,109.815,37.561,146.013,186.505-42.5,320.21-157.492,320.21-292.675a206.306,206.306,0,0,0-8.651-58.6c-30.064-6.005-95.289-18.326-159.281-26.043Z" fill="#2d509f"/>
        </g>
      </g>
    </g>
  </g>
</svg>
