<svg viewBox="0 0 188 23" xmlns="http://www.w3.org/2000/svg"><g fill="none"><path d="M125.771 17.811v3.836c-7.266 1.453-14.475 1.453-21.627 0V1.066h5.117v16.745h16.51zM.834 1.066a77.584 77.584 0 0 1 25.406 0v3.663H16.067v16.918h-5.116V4.729H.834V1.066zm155.693 16.745v3.836c-7.674 1.453-15.291 1.453-22.791 0V1.066c7.5-1.396 15-1.396 22.5 0v3.663h-17.324v4.186h10.115v4.128h-10.115v4.768h17.615z" fill="#353581"/><path d="M85.948 15.311c0 .988-.349 1.859-1.047 2.557-.755.697-1.627 1.047-2.616 1.047-.989 0-1.803-.35-2.558-1.047-.698-.697-1.046-1.568-1.046-2.557 0-.989.349-1.861 1.046-2.559.698-.756 1.57-1.105 2.558-1.105.988 0 1.86.35 2.616 1.105.698.697 1.047 1.57 1.047 2.559z" fill="#8DC2BB"/><path d="M55.891 8.915H41.182V.601l-4.709.581v20.697l4.709.582V13.1h14.709v9.361l4.709-.582V1.182l-4.709-.64v8.373zM82.343 5.02l9.419 17.267 5.117-.641-2.385-4.126-.058-.059-9.535-16.395h-4.709l-11.859 20.58 4.592.583 8.023-14.71.058-.058 1.337-2.441zm86.452 4.069v-4.36h18.836V1.066a56.838 56.838 0 0 0-11.104-.93c-3.664 0-6.803.349-9.535 1.104-.988.291-1.744.756-2.15 1.454-.408.698-.641 1.802-.641 3.256v2.267c0 1.918.406 3.197 1.221 3.896.756.639 2.209.986 4.303.986h13.604v4.711h-19.127v3.836l12.326.988v-.059c3.08 0 5.986-.406 8.721-1.162.988-.232 1.686-.697 2.092-1.453.408-.697.582-1.744.582-3.197v-2.791c0-1.918-.408-3.198-1.164-3.896-.756-.639-2.15-.988-4.301-.988h-13.663v.001z" fill="#353581"/></g></svg>