<svg width="512px" height="512px" viewBox="0 0 512 512" xmlns="http://www.w3.org/2000/svg">
	<!-- <rect width="512" height="512" fill="#FFFFF0"/> -->
	    <g transform="translate(52.000000, 41.000000)" fill="#000000">
	        <g id="S">
	            <path d="M88.6908378,5.3349507 C111.83273,-2.04790875 136.381649,0.511977188 160.264081,0.140979226 C160.227054,22.029859 160.264081,43.9558385 160.264081,65.8818181 C138.825432,67.180311 115.461378,61.6153415 95.9111081,73.1162784 C72.5458752,86.0282762 60.8748116,113.156526 67.5484054,139.042616 C74.4467715,163.930357 96.6243433,181.485222 122.385432,182.449378 C177.703811,182.894575 233.022189,182.412278 288.340568,182.671977 C353.738013,183.657139 407.062477,235.492885 410.024793,300.95901 C412.98711,366.425135 364.562893,422.883084 299.52273,429.793719 C275.677324,431.685809 251.683811,430.201817 227.764351,430.758314 C250.117951,414.419111 266.755518,391.428687 275.307054,365.061995 C296.449486,366.768585 319.073,360.127722 332.217595,342.616618 C349.629606,320.628454 348.834395,289.304291 330.329216,268.231527 C318.961866,255.241792 302.470061,247.915785 285.230297,248.197637 C230.874622,248.049237 176.481919,248.308936 122.126243,248.086337 C60.9657363,247.300102 9.56593964,201.83424 1.20373893,141.123931 C-7.15846178,80.413623 30.0291495,22.6977773 88.6908378,5.34237065 L88.6908378,5.3349507 Z"></path>
	        </g>
	        <g id="J">
	            <path d="M182.050507,0.244795608 C203.889313,0.205232681 225.728119,0.205232681 247.566925,0.244795608 C247.566925,81.3834125 247.60394,93.4080694 247.566925,174.509596 C225.728119,174.551632 203.889313,174.551632 182.050507,174.509596 C182.013493,93.4080694 182.013493,81.3834125 182.050507,0.244795608 Z"></path>
	            <path d="M182.020896,256.545797 C203.859701,256.508707 225.742925,256.545797 247.581731,256.545797 C246.249194,294.155304 253.082149,327.462343 235.166925,362.364262 C212.069612,412.32482 153.141851,441.997015 99.3221493,429.979776 C54.8730692,420.816277 18.920479,388.144406 5.48931343,344.709306 C-1.61755224,322.640611 0.270208955,299.236667 0.122149254,276.426167 C21.9239403,276.389077 43.7257313,276.426167 65.5645373,276.389077 C66.2678209,297.753057 61.9000597,321.527904 75.0773731,340.147206 C91.4379701,366.852181 130.340657,375.420027 155.91797,357.023267 C172.224567,346.123725 182.016821,327.779821 182.013493,308.138326 C182.235582,288.665948 181.909851,276.018175 182.020896,256.545797 Z"></path>
	        </g>
        </g>
</svg>