<svg width="512px" height="512px" viewBox="0 0 512 512" xmlns="http://www.w3.org/2000/svg">
    <rect width="512" height="512" fill="#FFFFF0"/>
    <g transform="translate(76.000000, 67.000000)" fill="#000000">
        <g id="S">
            <path d="M77.6854054,4.6665346 C97.9556759,-1.79132622 119.458379,0.447831554 140.377297,0.123315936 C140.344865,19.2697375 140.377297,38.4486105 140.377297,57.6274836 C121.598919,58.7632883 101.134054,53.8955539 84.0097297,63.9555382 C63.5438323,75.2497915 53.3210029,98.9791422 59.1664865,121.621963 C65.2088509,143.391519 84.6344613,158.746934 107.198919,159.590291 C155.652973,159.979709 204.107027,159.557839 252.561081,159.785001 C309.843515,160.646732 356.551075,205.987976 359.145804,263.251849 C361.740534,320.515721 319.325162,369.900053 262.355676,375.944854 C241.469189,377.599884 220.452973,376.301821 199.501621,376.788595 C219.081417,362.496531 233.654468,342.386578 241.144865,319.323369 C259.663783,320.81614 279.48,315.007311 290.993514,299.690174 C306.24491,280.456908 305.548375,253.05735 289.339459,234.624793 C279.382656,223.262542 264.93728,216.854411 249.836756,217.100949 C202.225946,216.971142 154.582703,217.198304 106.971892,217.003594 C53.4006449,216.315866 8.37892523,176.546423 1.05436987,123.44251 C-6.2701855,70.3385983 26.3029047,19.8539723 77.6854054,4.67302491 L77.6854054,4.6665346 Z"></path>
        </g>
        <g id="J">
            <path d="M159.294194,0.214266825 C178.403149,0.179637843 197.512104,0.179637843 216.621059,0.214266825 C216.621059,71.23398 216.653448,81.7590261 216.621059,152.746275 C197.512104,152.783068 178.403149,152.783068 159.294194,152.746275 C159.261806,81.7590261 159.261806,71.23398 159.294194,0.214266825 Z"></path>
            <path d="M159.268284,224.551633 C178.377238,224.519168 197.525059,224.551633 216.634015,224.551633 C215.468045,257.470809 221.44688,286.624083 205.771059,317.173338 C185.560911,360.903249 133.99912,386.874985 86.9068806,376.356432 C48.0139356,368.335725 16.5554191,339.738406 4.80314925,301.720155 C-1.41535821,282.403676 0.236432836,261.918468 0.106880597,241.952696 C19.1834478,241.920231 38.2600149,241.952696 57.3689701,241.920231 C57.9843433,260.619881 54.1625522,281.429736 65.6927015,297.727 C80.0082238,321.101563 114.048075,328.600901 136.428224,312.498425 C150.696496,302.95818 159.264718,286.901968 159.261806,269.70999 C159.456134,252.666038 159.17112,241.595585 159.268284,224.551633 Z"></path>
        </g>
    </g>
</svg>