<svg xmlns="http://www.w3.org/2000/svg" viewBox="0 0 110.819 116.647">
  <g id="S">
    <path id="Path" d="M23.953,1.438c6.25-1.99,12.88-1.3,19.33-1.4-.01,5.9,0,11.81,0,17.72-5.79.35-12.1-1.15-17.38,1.95a15.785,15.785,0,0,0-7.66,17.77,15.99,15.99,0,0,0,14.81,11.7c14.94.12,29.88-.01,44.82.06a33.4,33.4,0,0,1,3.02,66.61c-6.44.51-12.92.11-19.38.26A35.5,35.5,0,0,0,74.353,98.4c5.71.46,11.82-1.33,15.37-6.05a15.638,15.638,0,0,0-.51-20.05,15.855,15.855,0,0,0-12.18-5.4c-14.68-.04-29.37.03-44.05-.03a33.4,33.4,0,0,1-9.03-65.43Z" />
  </g>
  <g id="J">
    <path d="M49.183.066q8.85-.016,17.7,0c0,21.876.01,25.118,0,46.984q-8.85.017-17.7,0C49.173,25.184,49.173,21.942,49.183.066Z" />
    <path d="M49.175,69.168c5.9-.01,11.812,0,17.712,0-.36,10.14,1.486,19.12-3.354,28.53-6.24,13.47-22.16,21.47-36.7,18.23a33.635,33.635,0,0,1-25.35-22.99c-1.92-5.95-1.41-12.26-1.45-18.41,5.89-.01,11.78,0,17.68-.01.19,5.76-.99,12.17,2.57,17.19,4.42,7.2,14.93,9.51,21.84,4.55a15.84,15.84,0,0,0,7.05-13.18C49.233,77.828,49.145,74.418,49.175,69.168Z" />
  </g>
</svg>
